<svg width="94" height="496" viewBox="0 0 94 496" fill="none" xmlns="http://www.w3.org/2000/svg">
<path fill-rule="evenodd" clip-rule="evenodd" d="M91.9655 40.6794C86.885 21.2407 69.8733 3.63861 53.6313 1.03657C39.9296 -1.10629 28.922 2.8733 17.5295 14.1998C9.37006 22.3121 6.82985 26.7509 3.67383 38.2304C-0.944743 55.1437 0.209905 67.6947 7.90751 83.307C10.8326 89.1998 13.2189 94.71 13.2189 95.4753C13.2189 96.2407 10.2938 96.8529 6.75287 96.8529C0.671756 96.8529 0.286876 97.3121 0.902683 103.741L1.59547 110.628L25.535 111.241C38.698 111.547 53.0925 110.858 57.4801 109.71C68.4108 106.802 81.8816 94.8631 87.4239 83.0774C92.3503 72.3631 94.6596 51.0876 91.9655 40.6794ZM92.4273 168.562C87.3469 153.792 74.7228 139.174 63.4843 134.889C60.1743 133.664 45.2409 132.669 30.1536 132.669C4.52056 132.669 2.75011 132.899 1.44151 136.955C-1.4066 145.756 3.28894 147.44 31.3852 147.44L57.5571 147.44L65.8705 155.322C82.8053 171.394 82.9592 196.649 66.1784 213.332L58.1729 221.292L32.6168 221.292C6.36799 221.292 0.363851 223.052 0.363851 230.858C0.363851 236.904 8.98517 238.664 34.1564 237.746C54.0162 236.98 60.4822 235.909 67.641 232.236C77.7249 227.031 86.5771 216.623 90.7338 204.914C93.582 197.261 94.5826 174.914 92.4273 168.562ZM92.2734 294.225C90.8108 288.486 82.4974 276.011 76.4932 270.501C66.7173 261.547 57.4032 259.327 29.2299 259.327C4.44358 259.327 2.67313 259.634 1.36454 263.613C-1.40661 272.185 3.36591 274.098 28.3832 274.098C55.4788 274.098 63.7152 276.853 71.5668 288.639C78.2637 298.664 80.3421 316.802 76.0314 326.827C68.1028 345.271 57.7111 350.016 25.9969 350.016C4.3666 350.016 2.59615 350.322 1.36453 354.302C-1.40661 363.026 3.28893 364.787 30.3076 364.787C51.553 364.787 57.0183 364.098 65.1008 360.348C83.4211 351.929 93.8899 334.098 93.5819 312.134C93.505 304.557 92.8892 296.598 92.3503 294.302L92.2734 294.225ZM90.041 420.424C82.1125 398.46 66.4863 385.986 46.7805 385.986C17.5295 385.986 -4.48565 418.817 2.28824 452.108C3.75079 459.225 6.75286 468.256 9.06214 472.082C14.2195 480.884 14.2965 480.501 7.29169 481.343C2.36521 481.878 1.4415 483.026 1.4415 488.307L1.4415 494.659L26.9206 495.271C57.0183 496.037 65.2547 494.047 75.8774 483.486C91.8115 467.72 97.5847 441.623 89.9641 420.348L90.041 420.424ZM69.8733 81.4703C57.3262 99.4549 37.0815 99.608 24.6883 81.7764C11.9103 63.409 14.2965 38.5366 30.1536 24.3019C40.2375 15.2713 50.0904 14.1998 61.0211 20.9345C72.0286 27.7458 77.186 40.1437 76.4163 58.0519C75.8774 70.3733 74.7228 74.5825 69.8733 81.4703ZM69.0266 467.797C65.4856 472.159 59.2506 476.827 55.0169 478.205C24.9962 488.23 3.59684 441.929 25.2271 413.766C39.4677 395.169 61.4059 398.307 73.6451 420.807C76.2623 425.552 76.8781 431.215 76.2623 443.537C75.4925 457.924 74.6458 460.832 69.0266 467.797Z" fill="#BFE8E3"/>
</svg>
