<svg width="496" height="93" viewBox="0 0 496 93" fill="none" xmlns="http://www.w3.org/2000/svg">
<path fill-rule="evenodd" clip-rule="evenodd" d="M40.6247 2.11852C21.186 7.19895 3.58393 24.2107 0.981885 40.4526C-1.16097 54.1544 2.81862 65.162 14.1452 76.5545C22.2574 84.7139 26.6962 87.2541 38.1758 90.4102C55.089 95.0287 67.6401 93.8741 83.2523 86.1765C89.1451 83.2514 94.6554 80.8651 95.4207 80.8651C96.186 80.8651 96.7982 83.7902 96.7982 87.3311C96.7982 93.4122 97.2574 93.7971 103.686 93.1813L110.574 92.4885L111.186 68.5489C111.492 55.386 110.803 40.9915 109.655 36.6038C106.747 25.6732 94.8084 12.2024 83.0227 6.66011C72.3084 1.73364 51.0329 -0.575643 40.6247 2.11852ZM168.507 1.65667C153.737 6.73709 139.12 19.3612 134.834 30.5997C133.609 33.9097 132.615 48.843 132.615 63.9304C132.615 89.5634 132.844 91.3339 136.9 92.6425C145.701 95.4906 147.385 90.795 147.385 62.6987V36.5269L155.268 28.2134C171.339 11.2787 196.594 11.1247 213.278 27.9055L221.237 35.911V61.4671C221.237 87.716 222.997 93.7201 230.803 93.7201C236.849 93.7201 238.609 85.0988 237.691 59.9276C236.926 40.0678 235.854 33.6018 232.181 26.443C226.977 16.3591 216.569 7.50685 204.859 3.35014C197.206 0.502023 174.859 -0.498666 168.507 1.65667ZM294.171 1.81062C288.431 3.27316 275.956 11.5866 270.446 17.5907C261.492 27.3667 259.273 36.6808 259.273 64.8541C259.273 89.6404 259.579 91.4108 263.558 92.7194C272.13 95.4906 274.043 90.7181 274.043 65.7008C274.043 38.6052 276.798 30.3688 288.584 22.5172C298.609 15.8203 316.747 13.7419 326.773 18.0526C345.217 25.9811 349.961 36.3729 349.961 68.0871C349.961 89.7174 350.268 91.4878 354.247 92.7194C362.972 95.4906 364.732 90.795 364.732 63.7764C364.732 42.531 364.043 37.0657 360.293 28.9832C351.875 10.6629 334.043 0.194119 312.079 0.502023C304.502 0.578999 296.543 1.19481 294.247 1.73364L294.171 1.81062ZM420.37 4.04293C398.405 11.9715 385.931 27.5976 385.931 47.3035C385.931 76.5545 418.762 98.5696 452.053 91.7957C459.171 90.3332 468.201 87.3311 472.028 85.0218C480.829 79.8644 480.446 79.7874 481.288 86.7923C481.824 91.7188 482.972 92.6425 488.252 92.6425H494.604L495.217 67.1634C495.982 37.0657 493.992 28.8292 483.431 18.2065C467.666 2.27247 441.569 -3.50074 420.293 4.1199L420.37 4.04293ZM81.4156 24.2107C99.4003 36.7578 99.5533 57.0025 81.7217 69.3957C63.3543 82.1737 38.4819 79.7874 24.2472 63.9304C15.2166 53.8465 14.1452 43.9935 20.8798 33.0629C27.6911 22.0553 40.089 16.8979 57.9972 17.6677C70.3186 18.2065 74.5278 19.3612 81.4156 24.2107ZM467.742 25.0574C472.104 28.5983 476.773 34.8334 478.15 39.0671C488.176 69.0878 441.875 90.4871 413.711 68.8568C395.115 54.6162 398.252 32.678 420.752 20.4388C425.497 17.8217 431.16 17.2058 443.482 17.8217C457.87 18.5914 460.778 19.4382 467.742 25.0574Z" fill="#BFE8E3"/>
</svg>
