<svg width="222" height="222" viewBox="0 0 222 222" fill="none" xmlns="http://www.w3.org/2000/svg">
<circle opacity="0.2" cx="110.945" cy="111" r="110.5" fill="#81C8C2"/>
<circle cx="110.945" cy="111" r="99.6755" fill="#81C8C2"/>
<path fill-rule="evenodd" clip-rule="evenodd" d="M117.865 63.1501C113.669 71.091 103.708 91.1258 103.738 91.5659C103.808 92.585 105.655 95.4525 105.945 94.9912C106.192 94.5962 113.838 79.4473 116.911 73.2628C117.614 71.8487 118.333 70.74 118.511 70.7991C118.84 70.9083 139.308 111.257 139.784 112.735L140.046 113.548H130.981C123.983 113.548 121.918 113.656 121.923 114.022C121.926 114.282 122.321 115.178 122.801 116.012L123.672 117.528L134.789 117.629C140.903 117.684 146.032 117.599 146.187 117.439C146.341 117.279 140.189 104.704 132.514 89.4932L118.559 61.8379L117.865 63.1501ZM80.8671 98.9328C75.7558 109.01 71.6791 117.359 71.8083 117.486C72.1157 117.789 90.9102 117.787 93.1552 117.483C94.7423 117.269 94.9508 117.112 95.6569 115.6C96.0803 114.692 96.335 113.86 96.2227 113.749C96.1103 113.638 91.9798 113.548 87.0435 113.548C82.1075 113.548 78.0689 113.467 78.0689 113.368C78.0689 112.666 90.1089 89.3155 90.3844 89.4833C90.5767 89.6006 94.7965 97.7919 99.7612 107.687C104.726 117.582 108.93 125.673 109.102 125.668C109.467 125.657 123.844 97.0725 123.831 96.3834C123.817 95.5836 122.356 92.7007 121.965 92.7007C121.76 92.7007 118.857 98.1603 115.514 104.833C112.173 111.506 109.269 116.911 109.062 116.843C108.855 116.775 104.61 108.68 99.6277 98.8555C94.6457 89.0305 90.4774 80.9061 90.3651 80.8015C90.2529 80.6969 85.9788 88.856 80.8671 98.9328ZM70.9141 124.875C67.3639 125.78 64.165 128.813 63.693 131.722C63.2969 134.164 64.03 136.137 66.0889 138.165C67.5632 139.618 68.3809 140.08 70.4733 140.638C73.5584 141.46 75.8481 141.251 78.6844 139.887C79.7629 139.368 80.7583 138.943 80.896 138.943C81.0333 138.943 81.146 139.466 81.146 140.104C81.146 141.186 81.2314 141.257 82.396 141.147L83.646 141.028L83.755 136.756C83.8149 134.406 83.6876 131.839 83.4718 131.05C82.9372 129.093 80.764 126.698 78.6232 125.706C76.6866 124.809 72.8122 124.391 70.9141 124.875ZM94.2234 124.793C91.5364 125.695 88.8617 127.951 88.0923 129.966C87.8682 130.553 87.6847 133.228 87.6847 135.91C87.6847 140.492 87.7324 140.802 88.4724 141.034C90.0787 141.536 90.3771 140.699 90.3771 135.691V131.015L91.8194 129.525C94.7449 126.503 99.3559 126.476 102.388 129.464L103.839 130.894V135.46C103.839 140.154 104.161 141.217 105.584 141.217C106.689 141.217 107.01 139.675 106.838 135.189C106.702 131.64 106.509 130.488 105.835 129.205C104.89 127.406 102.987 125.829 100.859 125.081C99.4485 124.585 95.3715 124.408 94.2234 124.793ZM117.13 124.815C116.078 125.079 113.805 126.555 112.8 127.627C111.163 129.373 110.762 131.031 110.762 136.063C110.762 140.491 110.812 140.803 111.55 141.034C113.118 141.524 113.455 140.67 113.455 136.206C113.455 131.372 113.963 129.899 116.111 128.5C117.938 127.309 121.25 126.929 123.071 127.701C126.425 129.122 127.302 130.972 127.302 136.631C127.302 140.487 127.358 140.805 128.089 141.034C129.684 141.533 129.994 140.69 129.994 135.861C129.994 132.064 129.866 131.086 129.181 129.65C127.633 126.405 124.379 124.535 120.378 124.592C119.003 124.612 117.541 124.712 117.13 124.815ZM140.122 125.218C136.12 126.628 133.84 129.43 133.84 132.939C133.84 138.158 139.822 142.098 145.896 140.879C147.198 140.618 148.836 140.076 149.536 139.674C151.135 138.756 151.074 138.745 151.219 139.986C151.322 140.865 151.522 141.028 152.495 141.028H153.649L153.767 136.48C153.907 131.101 153.547 129.635 151.624 127.733C148.75 124.893 143.997 123.853 140.122 125.218ZM78.3417 128.822C81.6172 131.059 81.6448 134.679 78.4036 136.893C75.0608 139.176 70.5264 138.752 67.924 135.913C66.2789 134.119 66.0824 132.356 67.3086 130.4C68.5451 128.428 70.8071 127.509 74.07 127.651C76.3108 127.749 77.0785 127.96 78.3417 128.822ZM148.75 128.968C149.54 129.596 150.395 130.72 150.649 131.467C152.472 136.826 144.039 140.647 138.904 136.788C135.513 134.239 136.093 130.328 140.187 128.144C141.056 127.681 142.077 127.565 144.326 127.677C146.953 127.808 147.484 127.964 148.75 128.968Z" fill="white"/>
</svg>
