<svg width="108" height="88" viewBox="0 0 108 88" fill="none" xmlns="http://www.w3.org/2000/svg">
<path opacity="0.7" d="M82.3672 87.5C96.1982 87.5 107.445 74.3642 107.445 58.2188C107.445 43.4782 98.0715 31.2467 85.9122 29.2307C86.8856 20.9739 89.5857 13.1175 93.8043 6.30479C94.6247 4.97517 94.594 3.17365 93.7186 1.88699C92.8597 0.620819 91.3671 0.140854 90.0572 0.786018C70.1527 10.4866 57.2891 33.0339 57.2891 58.2188C57.2891 74.3642 68.5362 87.5 82.3672 87.5ZM25.5234 87.5C39.3544 87.5 50.6016 74.3642 50.6016 58.2188C50.6016 43.4782 41.2278 31.2467 29.0684 29.2307C30.0419 20.9739 32.742 13.1175 36.9605 6.30479C37.781 4.97517 37.7503 3.17365 36.8748 1.88699C36.0159 0.620819 34.5233 0.140854 33.2134 0.786018C13.3089 10.4866 0.445312 33.0339 0.445312 58.2188C0.445312 74.3642 11.6924 87.5 25.5234 87.5Z" fill="#E2F5F1"/>
</svg>
