<svg width="111" height="69" viewBox="0 0 111 69" fill="none" xmlns="http://www.w3.org/2000/svg">
<path d="M3.8517 2.84698C3.33968 2.84698 2.93359 3.25279 2.93359 3.76445V64.6353C2.93359 65.1469 3.33968 65.5527 3.8517 65.5527H107.209C107.721 65.5527 108.127 65.1469 108.127 64.6353C108.127 64.1236 107.721 63.7178 107.209 63.7178H4.7698V3.74681C4.7698 3.23515 4.36372 2.82934 3.8517 2.82934V2.84698Z" fill="#BEBEBE"/>
<path d="M7.29579 3.92282C7.29579 2.03494 5.75973 0.499941 3.87055 0.499941C1.98137 0.499941 0.445312 2.03494 0.445312 3.92282C0.445312 5.8107 1.98137 7.3457 3.87055 7.3457C5.75973 7.3457 7.29579 5.8107 7.29579 3.92282Z" fill="#BEBEBE"/>
<path d="M107.05 61.2128C108.939 61.2128 110.475 62.7478 110.475 64.6357C110.475 66.5236 108.939 68.0586 107.05 68.0586C105.161 68.0586 103.625 66.5236 103.625 64.6357C103.625 62.7478 105.161 61.2128 107.05 61.2128Z" fill="#BEBEBE"/>
</svg>
